# xmcd
#
# Track frame offsets: 
#        150
#        16335
#        31102
#        42290
#        62212
#        70055
#        82252
#        91665
#        111705
#        126815
#        142552
#        155157
#        171585
#        190655
#        215810
#        226612
#        235730
#        253415
#        263617
#
# Disc length: 3713 seconds
#
# Revision: 1
# Processed by: cddbd v1.5.2PL0 Copyright (c) Steve Scherf et al.
# Submitted via: ExactAudioCopyFreeDBPlugin 1.0
#
DISCID=090e7f13
DTITLE=Lonnie Pitchford - All Around Man
DYEAR=1994
DGENRE=Blues
TTITLE0=Elvira
TTITLE1=All Around Man
TTITLE2=If I Had Possession Over Judgement Day (solo version)
TTITLE3=Real Rock Music - Crawlin' Kingsnake
TTITLE4=My Babe
TTITLE5=55 Blues
TTITLE6=Bring It on Home
TTITLE7=This is the Blues
TTITLE8=The Ghetto
TTITLE9=See See Rider
TTITLE10=My Sunny
TTITLE11=Water in My Gas Tank
TTITLE12=Louisiana Blues
TTITLE13=Lonesome Blues
TTITLE14=Sweet Home Chicago
TTITLE15=Don't You Do That No More
TTITLE16=If I Had Possession Over Judgement Day (band version)
TTITLE17=All Around Man (Reprise)
TTITLE18=Drinkin' Antiseptic
EXTD=YEAR: 1994
EXTT0=
EXTT1=
EXTT2=
EXTT3=
EXTT4=
EXTT5=
EXTT6=
EXTT7=
EXTT8=
EXTT9=
EXTT10=
EXTT11=
EXTT12=
EXTT13=
EXTT14=
EXTT15=
EXTT16=
EXTT17=
EXTT18=
PLAYORDER=
